<svg xmlns="http://www.w3.org/2000/svg" viewBox="0 0 260 260" fill="none">
  <g stroke="#C99B2F" stroke-width="2.2" stroke-linecap="round">
    <path d="M14 246 C 14 170, 30 120, 78 92 C 110 74, 128 82, 128 100 C 128 116, 112 122, 102 112 C 94 104, 100 90, 114 90"/>
    <path d="M14 246 C 60 246, 118 236, 150 196 C 172 168, 164 148, 148 148 C 134 148, 130 164, 140 172 C 148 178, 160 174, 162 162"/>
    <path d="M22 200 C 40 176, 66 162, 92 160"/>
    <path d="M60 238 C 76 220, 96 208, 120 204"/>
    <path d="M14 152 C 22 120, 40 96, 64 82"/>
  </g>
  <g fill="#C99B2F">
    <circle cx="114" cy="90" r="3.4"/>
    <circle cx="162" cy="160" r="3.4"/>
    <circle cx="94" cy="160" r="3"/>
    <circle cx="122" cy="204" r="3"/>
    <circle cx="66" cy="80" r="3"/>
    <circle cx="14" cy="146" r="3"/>
    <path d="M14 246 l 7 -13 l 7 13 l -7 13 z"/>
  </g>
</svg>
