<svg xmlns="http://www.w3.org/2000/svg" viewBox="0 0 640 64" fill="none">
  <g stroke="#E5C05C" stroke-width="1.8" stroke-linecap="round" stroke-linejoin="round">
    <!-- sun -->
    <circle cx="36" cy="24" r="7"/>
    <path d="M36 12v-5M36 36v5M24 24h-5M48 24h5M27.5 15.5l-3.5-3.5M44.5 32.5l3.5 3.5M27.5 32.5l-3.5 3.5M44.5 15.5l3.5-3.5"/>

    <!-- tree -->
    <path d="M86 52V30"/>
    <path d="M86 30c-8-2-11-9-8-15M86 30c8-2 11-9 8-15M86 28c-4-6-3-12 1-16M86 28c5-5 5-11 2-15"/>

    <!-- cow -->
    <path d="M128 30l22 5-22 5zM172 30l-22 5 22 5z"/>
    <path d="M131 40v12M141 42v10M159 42v10M169 40v12"/>
    <path d="M172 32l8-6M180 26c-2-5-8-6-10-3M180 26c4-1 6-5 4-8M172 34l6 2"/>
    <path d="M128 32l-6 8"/>

    <!-- woman churning at the matka -->
    <circle cx="222" cy="46" r="6"/>
    <path d="M222 40V10M214 12h16"/>
    <circle cx="248" cy="13" r="4.5"/>
    <path d="M243 20l10 0-5 9zM238 38l20 0-10-9z"/>
    <path d="M244 21l-14-6M252 21l-14-8"/>
    <path d="M243 38l-4 14M253 38l4 14"/>

    <!-- hut -->
    <path d="M298 52V34h30v18M298 34l15-16 15 16M306 52v-9h8v9"/>
    <path d="M313 18v-6"/>

    <!-- two dancers holding hands -->
    <circle cx="376" cy="16" r="4.5"/>
    <path d="M371 23l10 0-5 9zM366 41l20 0-10-9z"/>
    <path d="M371 41l-4 12M381 41l4 12M372 24l-10 8M380 24l10 6"/>
    <circle cx="404" cy="16" r="4.5"/>
    <path d="M399 23l10 0-5 9zM394 41l20 0-10-9z"/>
    <path d="M399 41l-4 12M409 41l4 12M400 24l-10 6M408 24l10 8"/>

    <!-- peacock -->
    <path d="M452 52c-2-8 0-16 6-20"/>
    <circle cx="461" cy="28" r="4"/>
    <path d="M464 26l6-2-4 5"/>
    <path d="M456 32c-8-2-12-9-10-16M458 30c-5-5-6-12-2-17M461 32c-1-7 2-13 8-15"/>
    <path d="M453 52h8"/>

    <!-- tree -->
    <path d="M516 52V30"/>
    <path d="M516 30c-8-2-11-9-8-15M516 30c8-2 11-9 8-15M516 28c-4-6-3-12 1-16M516 28c5-5 5-11 2-15"/>

    <!-- cow (mirrored) -->
    <path d="M560 30l22 5-22 5zM604 30l-22 5 22 5z"/>
    <path d="M563 40v12M573 42v10M591 42v10M601 40v12"/>
    <path d="M560 32l-8-6M552 26c2-5 8-6 10-3M552 26c-4-1-6-5-4-8M560 34l-6 2"/>
    <path d="M604 32l6 8"/>
  </g>
  <g fill="#E5C05C">
    <circle cx="86" cy="14" r="1.6"/>
    <circle cx="313" cy="10" r="1.6"/>
    <circle cx="516" cy="14" r="1.6"/>
    <circle cx="461" cy="27.5" r="1.4"/>
  </g>
</svg>
